HIERARCHY
ROOT Hips
{
  OFFSET 13.6774 106.653 -34.4427
  CHANNELS 6 Xposition Yposition Zposition Zrotation Xrotation Yrotation
  JOINT ToSpine
  {
    OFFSET -2.69724 7.43032 -0.144315
    CHANNELS 3 Zrotation Xrotation Yrotation
    JOINT Spine
    {
      OFFSET -0.0310711 10.7595 1.96963
      CHANNELS 3 Zrotation Xrotation Yrotation
      JOINT Spine1
      {
        OFFSET 19.9056 3.91189 0.764692
        CHANNELS 3 Zrotation Xrotation Yrotation
        JOINT Neck
        {
          OFFSET 25.9749 7.03908 -0.130764
          CHANNELS 3 Zrotation Xrotation Yrotation
          JOINT Head
          {
            OFFSET 9.52751 0.295786 -0.907742
            CHANNELS 3 Zrotation Xrotation Yrotation
            End Site
            {
              OFFSET 16.4037 0.713936 2.7358
            }
          }
        }
        JOINT LeftShoulder
        {
          OFFSET 17.7449 4.33886 11.7777
          CHANNELS 3 Zrotation Xrotation Yrotation
          JOINT LeftArm
          {
            OFFSET 0.911315 1.27913 9.80584
            CHANNELS 3 Zrotation Xrotation Yrotation
            JOINT LeftForeArm
            {
              OFFSET 28.6126 1.18197 -3.53199
              CHANNELS 3 Zrotation Xrotation Yrotation
              JOINT LeftHand
              {
                OFFSET 27.5088 0.0218783 0.327423
                CHANNELS 3 Zrotation Xrotation Yrotation
                End Site
                {
                  OFFSET 18.6038 -0.000155887 0.382096
                }
              }
            }
          }
        }
        JOINT RightShoulder
        {
          OFFSET 17.1009 2.89543 -12.2328
          CHANNELS 3 Zrotation Xrotation Yrotation
          JOINT RightArm
          {
            OFFSET 1.4228 0.178766 -10.211
            CHANNELS 3 Zrotation Xrotation Yrotation
            JOINT RightForeArm
            {
              OFFSET 28.733 1.87905 2.64907
              CHANNELS 3 Zrotation Xrotation Yrotation
              JOINT RightHand
              {
                OFFSET 27.4588 0.290562 -0.101845
                CHANNELS 3 Zrotation Xrotation Yrotation
                End Site
                {
                  OFFSET 17.8396 -0.255518 -0.000602873
                }
              }
            }
          }
        }
      }
    }
  }
  JOINT LeftUpLeg
  {
    OFFSET -5.61296 -2.22332 -10.2353
    CHANNELS 3 Zrotation Xrotation Yrotation
    JOINT LeftLeg
    {
      OFFSET 2.56703 -44.7417 -7.93097
      CHANNELS 3 Zrotation Xrotation Yrotation
      JOINT LeftFoot
      {
        OFFSET 3.16933 -46.5642 -3.96578
        CHANNELS 3 Zrotation Xrotation Yrotation
        JOINT LeftToeBase
        {
          OFFSET 0.346054 -6.02161 12.8035
          CHANNELS 3 Zrotation Xrotation Yrotation
          End Site
          {
            OFFSET 0.134235 -1.35082 5.13018
          }
        }
      }
    }
  }
  JOINT RightUpLeg
  {
    OFFSET -5.7928 -1.72406 10.6446
    CHANNELS 3 Zrotation Xrotation Yrotation
    JOINT RightLeg
    {
      OFFSET -2.57161 -44.7178 -7.85259
      CHANNELS 3 Zrotation Xrotation Yrotation
      JOINT RightFoot
      {
        OFFSET -3.10148 -46.5936 -4.03391
        CHANNELS 3 Zrotation Xrotation Yrotation
        JOINT RightToeBase
        {
          OFFSET -0.0828122 -6.13587 12.8035
          CHANNELS 3 Zrotation Xrotation Yrotation
          End Site
          {
            OFFSET -0.131328 -1.35082 5.13018
          }
        }
      }
    }
  }
}
MOTION
Frames: 7
Frame Time: 0.03333333333333333
0.0000 93.1000 0.0000 30.6880 -50.9845 -71.6840 -70.9808 -0.4446 88.0037 120.0893 70.3378 -33.9199 -4.9486 22.5387 3.2831 -167.2667 35.1029 -177.6855 -151.3953 75.1645 -175.2182 0.9691 -12.3240 -31.7368 -69.7459 55.7563 -67.5805 15.2016 9.1271 -59.3719 -0.2920 -0.7002 0.6710 -2.5375 5.4099 47.3303 -72.6331 -24.1483 79.6266 24.0479 -12.3453 64.5731 0.3409 0.6811 0.4656 -46.5398 0.0756 90.3498 -56.6509 83.2396 41.8284 -6.2358 2.3577 0.7872 2.3566 -11.0871 9.2602 -20.1764 0.7836 75.9355 0.7206 58.0931 -10.8131 -7.9956 -33.0233 1.3188 3.8729 3.1800 -22.0383 
0.0000 93.1000 0.0000 23.9912 -52.0487 -78.0431 -70.9678 -0.4658 88.0113 127.2223 70.1322 -41.5494 -5.2794 24.3389 3.4097 -169.4797 35.2596 -177.3334 -148.5395 75.1563 -178.2102 3.2306 -11.9731 -30.6658 -64.3058 58.0414 -69.7642 14.5363 11.7526 -53.5716 0.8716 -0.9574 0.4175 -1.0167 6.2361 44.3683 -76.9911 -24.4741 87.8104 28.2561 -11.6493 70.2322 0.5316 1.0069 1.4806 -32.8690 1.1335 90.4616 -151.0594 79.5646 139.6750 -3.6094 3.4428 -1.1103 3.3738 -10.8682 9.8661 -27.3789 3.2913 75.8648 0.7154 55.2277 -10.9287 -8.9003 -36.9771 2.2254 4.5711 2.6840 -20.3466 
0.0000 93.1000 0.0000 17.8403 -51.2331 -85.0617 -70.9851 -0.5675 88.0072 132.0706 71.5581 -47.8745 -7.5389 26.1809 3.9882 -171.2000 35.3179 -177.3379 -147.5804 74.8548 178.2155 1.1042 -12.1909 -30.1357 -57.6832 60.5995 -68.6034 16.6611 11.4314 -56.0867 -0.1046 -0.7793 0.7531 -1.9296 6.6166 40.8036 -78.5486 -28.9779 93.8792 30.8969 -8.1656 77.6343 0.6144 0.8209 0.7403 -19.5827 1.0370 91.2909 -158.2528 76.4664 150.2198 -2.3339 2.2295 -0.4384 3.0101 -9.9580 10.0800 -36.2628 2.9249 76.8081 1.9430 49.9070 -2.7881 -8.1709 -36.2568 1.2784 3.4147 -1.4427 -23.9182 
0.0000 93.1000 0.0000 13.9657 -51.7635 -91.1660 -70.9812 -0.4902 88.0083 138.1150 73.1748 -54.6007 -9.4010 28.7828 3.5795 -169.6808 36.9606 -180.1423 -145.2879 76.3967 176.5002 1.1778 -12.0580 -28.4431 -54.4146 62.0124 -65.7792 17.6080 10.5178 -60.0444 0.3148 -0.7364 0.5186 -1.6869 6.8500 37.6867 -79.2331 -33.0432 98.0638 34.5100 -4.6556 83.6662 0.7521 0.6369 0.8638 -9.7269 1.3212 92.9224 -145.9297 81.1222 138.2299 -1.3600 0.2765 -0.8631 2.4825 -9.3902 9.6535 -46.6299 2.0184 78.1232 0.8292 41.1988 -1.2396 -6.8767 -26.7639 1.0316 3.5240 -13.4905 -11.1889 
0.0000 93.1000 0.0000 11.9322 -51.3096 -92.7697 -70.9855 -0.5711 88.0109 138.0431 75.2233 -54.2944 -9.9122 30.1477 2.8714 -170.2362 37.1831 -180.1435 -147.1318 76.9078 176.6026 1.1859 -12.2601 -26.1902 -55.0286 64.0577 -61.7234 17.0250 8.7674 -63.2925 0.2158 -0.7605 0.2008 -1.6600 7.1948 34.9566 -77.6826 -36.9110 100.6130 36.8369 0.1158 89.2681 0.6557 0.5422 0.9826 -2.8116 -0.5276 93.8568 -36.2189 82.9669 28.3898 -2.2560 0.2031 -0.6390 2.2269 -9.0082 8.6053 -55.8500 -0.0507 79.1300 1.0694 34.1585 -0.9014 -5.7511 -9.4737 0.5088 2.4481 -23.5088 4.3465 
0.0000 93.1000 0.0000 12.0486 -50.0796 -93.8845 -70.9890 -0.4777 88.0113 135.1626 76.1503 -50.3451 -9.0325 30.8629 1.0535 -172.3212 37.1176 -180.0802 -147.1659 76.9840 174.2916 1.4770 -12.5969 -24.8911 -57.7102 64.9838 -56.5675 15.8724 7.3013 -65.3025 0.5680 -0.5062 -0.1965 -1.2646 7.9021 33.0082 -75.1067 -40.8004 100.0211 38.0003 2.9783 93.7935 0.1157 0.3048 0.8876 0.0881 -2.1207 95.0063 -9.0166 66.6760 -3.6327 -4.8383 1.5386 -0.4710 3.4904 -11.1494 11.5765 -61.8143 -1.3777 79.2297 0.6370 30.7718 5.8795 -2.9965 8.6927 -0.0062 1.7433 -19.8692 6.6781 
0.0000 93.1000 0.0000 8.8020 -49.3790 -94.6795 -70.9957 0.7102 88.0068 132.1759 77.6100 -46.2415 -8.8923 31.3798 0.9139 -175.2464 37.2016 -177.7614 -150.2151 76.8101 174.8523 -0.7255 -12.8317 -25.8509 -61.2513 65.2484 -54.7889 15.8604 6.5860 -67.4554 1.2269 1.3738 -1.1367 -2.1759 8.1172 32.2584 -70.8036 -41.3924 100.6240 37.7295 3.8149 94.8769 -1.3584 -1.6198 -1.2623 -0.8872 -2.0281 96.3492 -5.1867 49.3597 -14.7889 -7.5185 3.8169 0.7003 6.7125 -16.4504 15.1873 -66.8346 0.7831 83.0872 -1.1400 30.3882 17.1951 -0.7284 16.0399 -0.0071 3.7175 -15.1686 -19.3636 
